<?xml version="1.0" encoding="UTF-8" standalone="no"?>
<!DOCTYPE svg PUBLIC "-//W3C//DTD SVG 1.1//EN"
 "http://www.w3.org/Graphics/SVG/1.1/DTD/svg11.dtd">
<!-- Generated by graphviz version 5.0.0 (20220707.1540)
 -->
<!-- Title: dependencies Pages: 1 -->
<svg width="264pt" height="247pt"
 viewBox="0.00 0.00 264.00 246.80" xmlns="http://www.w3.org/2000/svg" xmlns:xlink="http://www.w3.org/1999/xlink">
<g id="graph0" class="graph" transform="scale(1 1) rotate(0) translate(4 242.8)">
<title>dependencies</title>
<polygon fill="white" stroke="transparent" points="-4,4 -4,-242.8 260,-242.8 260,4 -4,4"/>
<text text-anchor="middle" x="128" y="-8.2" font-family="sans-serif" font-size="14.00">dependencies</text>
<g id="clust1" class="cluster">
<title>cluster_ExploreContainerComponentModule</title>
<polygon fill="none" stroke="black" stroke-dasharray="1,5" points="8,-32.8 8,-230.8 248,-230.8 248,-32.8 8,-32.8"/>
</g>
<g id="clust5" class="cluster">
<title>cluster_ExploreContainerComponentModule_exports</title>
<polygon fill="none" stroke="black" points="28,-170.8 28,-222.8 228,-222.8 228,-170.8 28,-170.8"/>
</g>
<g id="clust2" class="cluster">
<title>cluster_ExploreContainerComponentModule_declarations</title>
<polygon fill="none" stroke="black" points="30,-40.8 30,-92.8 226,-92.8 226,-40.8 30,-40.8"/>
</g>
<!-- ExploreContainerComponent -->
<g id="node1" class="node">
<title>ExploreContainerComponent</title>
<polygon fill="#ffffb3" stroke="black" points="218.36,-84.8 37.64,-84.8 37.64,-48.8 218.36,-48.8 218.36,-84.8"/>
<text text-anchor="middle" x="128" y="-62.6" font-family="Times,serif" font-size="14.00">ExploreContainerComponent</text>
</g>
<!-- ExploreContainerComponentModule -->
<g id="node2" class="node">
<title>ExploreContainerComponentModule</title>
<polygon fill="#8dd3c7" stroke="black" points="240.41,-149.8 237.41,-153.8 216.41,-153.8 213.41,-149.8 15.59,-149.8 15.59,-113.8 240.41,-113.8 240.41,-149.8"/>
<text text-anchor="middle" x="128" y="-127.6" font-family="Times,serif" font-size="14.00">ExploreContainerComponentModule</text>
</g>
<!-- ExploreContainerComponent&#45;&gt;ExploreContainerComponentModule -->
<g id="edge1" class="edge">
<title>ExploreContainerComponent&#45;&gt;ExploreContainerComponentModule</title>
<path fill="none" stroke="black" d="M128,-84.91C128,-84.91 128,-103.79 128,-103.79"/>
<polygon fill="black" stroke="black" points="124.5,-103.79 128,-113.79 131.5,-103.79 124.5,-103.79"/>
</g>
<!-- ExploreContainerComponent  -->
<g id="node3" class="node">
<title>ExploreContainerComponent </title>
<polygon fill="#fb8072" stroke="black" points="220.36,-214.8 35.64,-214.8 35.64,-178.8 220.36,-178.8 220.36,-214.8"/>
<text text-anchor="middle" x="128" y="-192.6" font-family="Times,serif" font-size="14.00">ExploreContainerComponent </text>
</g>
<!-- ExploreContainerComponentModule&#45;&gt;ExploreContainerComponent  -->
<g id="edge2" class="edge">
<title>ExploreContainerComponentModule&#45;&gt;ExploreContainerComponent </title>
<path fill="none" stroke="black" stroke-dasharray="5,2" d="M128,-149.91C128,-149.91 128,-168.79 128,-168.79"/>
<polygon fill="black" stroke="black" points="124.5,-168.79 128,-178.79 131.5,-168.79 124.5,-168.79"/>
</g>
</g>
</svg>
