<?xml version="1.0" encoding="UTF-8" standalone="no"?>
<!DOCTYPE svg PUBLIC "-//W3C//DTD SVG 1.1//EN"
 "http://www.w3.org/Graphics/SVG/1.1/DTD/svg11.dtd">
<!-- Generated by graphviz version 5.0.0 (20220707.1540)
 -->
<!-- Title: dependencies Pages: 1 -->
<svg width="769pt" height="174pt"
 viewBox="0.00 0.00 769.00 173.80" xmlns="http://www.w3.org/2000/svg" xmlns:xlink="http://www.w3.org/1999/xlink">
<g id="graph0" class="graph" transform="scale(1 1) rotate(0) translate(4 169.8)">
<title>dependencies</title>
<polygon fill="white" stroke="transparent" points="-4,4 -4,-169.8 765,-169.8 765,4 -4,4"/>
<text text-anchor="middle" x="380.5" y="-8.2" font-family="sans-serif" font-size="14.00">dependencies</text>
<g id="clust1" class="cluster">
<title>cluster_Tab1PageModule</title>
<polygon fill="none" stroke="black" stroke-dasharray="1,5" points="8,-32.8 8,-157.8 753,-157.8 753,-32.8 8,-32.8"/>
</g>
<g id="clust7" class="cluster">
<title>cluster_Tab1PageModule_imports</title>
<polygon fill="none" stroke="black" points="569,-40.8 569,-92.8 745,-92.8 745,-40.8 569,-40.8"/>
</g>
<g id="clust2" class="cluster">
<title>cluster_Tab1PageModule_declarations</title>
<polygon fill="none" stroke="black" points="16,-40.8 16,-92.8 561,-92.8 561,-40.8 16,-40.8"/>
</g>
<!-- FooterComponent -->
<g id="node1" class="node">
<title>FooterComponent</title>
<polygon fill="#ffffb3" stroke="black" points="552.88,-84.8 435.12,-84.8 435.12,-48.8 552.88,-48.8 552.88,-84.8"/>
<text text-anchor="middle" x="494" y="-62.6" font-family="Times,serif" font-size="14.00">FooterComponent</text>
</g>
<!-- Tab1PageModule -->
<g id="node5" class="node">
<title>Tab1PageModule</title>
<polygon fill="#8dd3c7" stroke="black" points="401.53,-149.8 398.53,-153.8 377.53,-153.8 374.53,-149.8 286.47,-149.8 286.47,-113.8 401.53,-113.8 401.53,-149.8"/>
<text text-anchor="middle" x="344" y="-127.6" font-family="Times,serif" font-size="14.00">Tab1PageModule</text>
</g>
<!-- FooterComponent&#45;&gt;Tab1PageModule -->
<g id="edge1" class="edge">
<title>FooterComponent&#45;&gt;Tab1PageModule</title>
<path fill="none" stroke="black" d="M494,-84.82C494,-102.17 494,-125.8 494,-125.8 494,-125.8 411.56,-125.8 411.56,-125.8"/>
<polygon fill="black" stroke="black" points="411.56,-122.3 401.56,-125.8 411.56,-129.3 411.56,-122.3"/>
</g>
<!-- HeroheaderComponent -->
<g id="node2" class="node">
<title>HeroheaderComponent</title>
<polygon fill="#ffffb3" stroke="black" points="417.12,-84.8 270.88,-84.8 270.88,-48.8 417.12,-48.8 417.12,-84.8"/>
<text text-anchor="middle" x="344" y="-62.6" font-family="Times,serif" font-size="14.00">HeroheaderComponent</text>
</g>
<!-- HeroheaderComponent&#45;&gt;Tab1PageModule -->
<g id="edge2" class="edge">
<title>HeroheaderComponent&#45;&gt;Tab1PageModule</title>
<path fill="none" stroke="black" d="M344,-84.91C344,-84.91 344,-103.79 344,-103.79"/>
<polygon fill="black" stroke="black" points="340.5,-103.79 344,-113.79 347.5,-103.79 340.5,-103.79"/>
</g>
<!-- HomepostComponent -->
<g id="node3" class="node">
<title>HomepostComponent</title>
<polygon fill="#ffffb3" stroke="black" points="252.38,-84.8 113.62,-84.8 113.62,-48.8 252.38,-48.8 252.38,-84.8"/>
<text text-anchor="middle" x="183" y="-62.6" font-family="Times,serif" font-size="14.00">HomepostComponent</text>
</g>
<!-- HomepostComponent&#45;&gt;Tab1PageModule -->
<g id="edge3" class="edge">
<title>HomepostComponent&#45;&gt;Tab1PageModule</title>
<path fill="none" stroke="black" d="M183,-84.82C183,-102.17 183,-125.8 183,-125.8 183,-125.8 276.33,-125.8 276.33,-125.8"/>
<polygon fill="black" stroke="black" points="276.33,-129.3 286.33,-125.8 276.33,-122.3 276.33,-129.3"/>
</g>
<!-- Tab1Page -->
<g id="node4" class="node">
<title>Tab1Page</title>
<polygon fill="#ffffb3" stroke="black" points="95.98,-84.8 24.02,-84.8 24.02,-48.8 95.98,-48.8 95.98,-84.8"/>
<text text-anchor="middle" x="60" y="-62.6" font-family="Times,serif" font-size="14.00">Tab1Page</text>
</g>
<!-- Tab1Page&#45;&gt;Tab1PageModule -->
<g id="edge4" class="edge">
<title>Tab1Page&#45;&gt;Tab1PageModule</title>
<path fill="none" stroke="black" d="M60,-85.08C60,-106.12 60,-137.8 60,-137.8 60,-137.8 276.19,-137.8 276.19,-137.8"/>
<polygon fill="black" stroke="black" points="276.19,-141.3 286.19,-137.8 276.19,-134.3 276.19,-141.3"/>
</g>
<!-- Tab1PageRoutingModule -->
<g id="node6" class="node">
<title>Tab1PageRoutingModule</title>
<polygon fill="#8dd3c7" stroke="black" points="737.15,-84.8 734.15,-88.8 713.15,-88.8 710.15,-84.8 576.85,-84.8 576.85,-48.8 737.15,-48.8 737.15,-84.8"/>
<text text-anchor="middle" x="657" y="-62.6" font-family="Times,serif" font-size="14.00">Tab1PageRoutingModule</text>
</g>
<!-- Tab1PageRoutingModule&#45;&gt;Tab1PageModule -->
<g id="edge5" class="edge">
<title>Tab1PageRoutingModule&#45;&gt;Tab1PageModule</title>
<path fill="none" stroke="black" d="M657,-85.08C657,-106.12 657,-137.8 657,-137.8 657,-137.8 411.77,-137.8 411.77,-137.8"/>
<polygon fill="black" stroke="black" points="411.77,-134.3 401.77,-137.8 411.77,-141.3 411.77,-134.3"/>
</g>
</g>
</svg>
