<?xml version="1.0" encoding="UTF-8" standalone="no"?>
<!DOCTYPE svg PUBLIC "-//W3C//DTD SVG 1.1//EN"
 "http://www.w3.org/Graphics/SVG/1.1/DTD/svg11.dtd">
<!-- Generated by graphviz version 5.0.0 (20220707.1540)
 -->
<!-- Title: dependencies Pages: 1 -->
<svg width="450pt" height="174pt"
 viewBox="0.00 0.00 450.00 173.80" xmlns="http://www.w3.org/2000/svg" xmlns:xlink="http://www.w3.org/1999/xlink">
<g id="graph0" class="graph" transform="scale(1 1) rotate(0) translate(4 169.8)">
<title>dependencies</title>
<polygon fill="white" stroke="transparent" points="-4,4 -4,-169.8 446,-169.8 446,4 -4,4"/>
<text text-anchor="middle" x="221" y="-8.2" font-family="sans-serif" font-size="14.00">dependencies</text>
<g id="clust1" class="cluster">
<title>cluster_TabsPageModule</title>
<polygon fill="none" stroke="black" stroke-dasharray="1,5" points="8,-32.8 8,-157.8 434,-157.8 434,-32.8 8,-32.8"/>
</g>
<g id="clust2" class="cluster">
<title>cluster_TabsPageModule_declarations</title>
<polygon fill="none" stroke="black" points="200,-40.8 200,-92.8 426,-92.8 426,-40.8 200,-40.8"/>
</g>
<g id="clust5" class="cluster">
<title>cluster_TabsPageModule_imports</title>
<polygon fill="none" stroke="black" points="16,-40.8 16,-92.8 192,-92.8 192,-40.8 16,-40.8"/>
</g>
<!-- NavbarComponent -->
<g id="node1" class="node">
<title>NavbarComponent</title>
<polygon fill="#ffffb3" stroke="black" points="418.03,-84.8 295.97,-84.8 295.97,-48.8 418.03,-48.8 418.03,-84.8"/>
<text text-anchor="middle" x="357" y="-62.6" font-family="Times,serif" font-size="14.00">NavbarComponent</text>
</g>
<!-- TabsPageModule -->
<g id="node3" class="node">
<title>TabsPageModule</title>
<polygon fill="#8dd3c7" stroke="black" points="299.98,-149.8 296.98,-153.8 275.98,-153.8 272.98,-149.8 186.02,-149.8 186.02,-113.8 299.98,-113.8 299.98,-149.8"/>
<text text-anchor="middle" x="243" y="-127.6" font-family="Times,serif" font-size="14.00">TabsPageModule</text>
</g>
<!-- NavbarComponent&#45;&gt;TabsPageModule -->
<g id="edge1" class="edge">
<title>NavbarComponent&#45;&gt;TabsPageModule</title>
<path fill="none" stroke="black" d="M295.84,-66.8C290.45,-66.8 286.97,-66.8 286.97,-66.8 286.97,-66.8 286.97,-103.69 286.97,-103.69"/>
<polygon fill="black" stroke="black" points="283.47,-103.69 286.97,-113.69 290.47,-103.69 283.47,-103.69"/>
</g>
<!-- TabsPage -->
<g id="node2" class="node">
<title>TabsPage</title>
<polygon fill="#ffffb3" stroke="black" points="278.43,-84.8 207.57,-84.8 207.57,-48.8 278.43,-48.8 278.43,-84.8"/>
<text text-anchor="middle" x="243" y="-62.6" font-family="Times,serif" font-size="14.00">TabsPage</text>
</g>
<!-- TabsPage&#45;&gt;TabsPageModule -->
<g id="edge2" class="edge">
<title>TabsPage&#45;&gt;TabsPageModule</title>
<path fill="none" stroke="black" d="M243,-84.91C243,-84.91 243,-103.79 243,-103.79"/>
<polygon fill="black" stroke="black" points="239.5,-103.79 243,-113.79 246.5,-103.79 239.5,-103.79"/>
</g>
<!-- TabsPageRoutingModule -->
<g id="node4" class="node">
<title>TabsPageRoutingModule</title>
<polygon fill="#8dd3c7" stroke="black" points="183.6,-84.8 180.6,-88.8 159.6,-88.8 156.6,-84.8 24.4,-84.8 24.4,-48.8 183.6,-48.8 183.6,-84.8"/>
<text text-anchor="middle" x="104" y="-62.6" font-family="Times,serif" font-size="14.00">TabsPageRoutingModule</text>
</g>
<!-- TabsPageRoutingModule&#45;&gt;TabsPageModule -->
<g id="edge3" class="edge">
<title>TabsPageRoutingModule&#45;&gt;TabsPageModule</title>
<path fill="none" stroke="black" d="M183.59,-66.8C191.62,-66.8 196.9,-66.8 196.9,-66.8 196.9,-66.8 196.9,-103.69 196.9,-103.69"/>
<polygon fill="black" stroke="black" points="193.4,-103.69 196.9,-113.69 200.4,-103.69 193.4,-103.69"/>
</g>
</g>
</svg>
