<?xml version="1.0" encoding="UTF-8" standalone="no"?>
<!DOCTYPE svg PUBLIC "-//W3C//DTD SVG 1.1//EN"
 "http://www.w3.org/Graphics/SVG/1.1/DTD/svg11.dtd">
<!-- Generated by graphviz version 5.0.0 (20220707.1540)
 -->
<!-- Title: dependencies Pages: 1 -->
<svg width="358pt" height="174pt"
 viewBox="0.00 0.00 358.00 173.80" xmlns="http://www.w3.org/2000/svg" xmlns:xlink="http://www.w3.org/1999/xlink">
<g id="graph0" class="graph" transform="scale(1 1) rotate(0) translate(4 169.8)">
<title>dependencies</title>
<polygon fill="white" stroke="transparent" points="-4,4 -4,-169.8 354,-169.8 354,4 -4,4"/>
<text text-anchor="middle" x="175" y="-8.2" font-family="sans-serif" font-size="14.00">dependencies</text>
<g id="clust1" class="cluster">
<title>cluster_PostPagePageModule</title>
<polygon fill="none" stroke="black" stroke-dasharray="1,5" points="8,-32.8 8,-157.8 342,-157.8 342,-32.8 8,-32.8"/>
</g>
<g id="clust2" class="cluster">
<title>cluster_PostPagePageModule_declarations</title>
<polygon fill="none" stroke="black" points="224,-40.8 224,-92.8 334,-92.8 334,-40.8 224,-40.8"/>
</g>
<g id="clust4" class="cluster">
<title>cluster_PostPagePageModule_imports</title>
<polygon fill="none" stroke="black" points="16,-40.8 16,-92.8 216,-92.8 216,-40.8 16,-40.8"/>
</g>
<!-- PostPagePage -->
<g id="node1" class="node">
<title>PostPagePage</title>
<polygon fill="#ffffb3" stroke="black" points="326.05,-84.8 231.95,-84.8 231.95,-48.8 326.05,-48.8 326.05,-84.8"/>
<text text-anchor="middle" x="279" y="-62.6" font-family="Times,serif" font-size="14.00">PostPagePage</text>
</g>
<!-- PostPagePageModule -->
<g id="node2" class="node">
<title>PostPagePageModule</title>
<polygon fill="#8dd3c7" stroke="black" points="259.1,-149.8 256.1,-153.8 235.1,-153.8 232.1,-149.8 120.9,-149.8 120.9,-113.8 259.1,-113.8 259.1,-149.8"/>
<text text-anchor="middle" x="190" y="-127.6" font-family="Times,serif" font-size="14.00">PostPagePageModule</text>
</g>
<!-- PostPagePage&#45;&gt;PostPagePageModule -->
<g id="edge1" class="edge">
<title>PostPagePage&#45;&gt;PostPagePageModule</title>
<path fill="none" stroke="black" d="M245.39,-84.91C245.39,-84.91 245.39,-103.79 245.39,-103.79"/>
<polygon fill="black" stroke="black" points="241.89,-103.79 245.39,-113.79 248.89,-103.79 241.89,-103.79"/>
</g>
<!-- PostPagePageRoutingModule -->
<g id="node3" class="node">
<title>PostPagePageRoutingModule</title>
<polygon fill="#8dd3c7" stroke="black" points="207.72,-84.8 204.72,-88.8 183.72,-88.8 180.72,-84.8 24.28,-84.8 24.28,-48.8 207.72,-48.8 207.72,-84.8"/>
<text text-anchor="middle" x="116" y="-62.6" font-family="Times,serif" font-size="14.00">PostPagePageRoutingModule</text>
</g>
<!-- PostPagePageRoutingModule&#45;&gt;PostPagePageModule -->
<g id="edge2" class="edge">
<title>PostPagePageRoutingModule&#45;&gt;PostPagePageModule</title>
<path fill="none" stroke="black" d="M164.28,-84.91C164.28,-84.91 164.28,-103.79 164.28,-103.79"/>
<polygon fill="black" stroke="black" points="160.78,-103.79 164.28,-113.79 167.78,-103.79 160.78,-103.79"/>
</g>
</g>
</svg>
