<?xml version="1.0" encoding="UTF-8" standalone="no"?>
<!DOCTYPE svg PUBLIC "-//W3C//DTD SVG 1.1//EN"
 "http://www.w3.org/Graphics/SVG/1.1/DTD/svg11.dtd">
<!-- Generated by graphviz version 5.0.0 (20220707.1540)
 -->
<!-- Title: dependencies Pages: 1 -->
<svg width="332pt" height="174pt"
 viewBox="0.00 0.00 332.00 173.80" xmlns="http://www.w3.org/2000/svg" xmlns:xlink="http://www.w3.org/1999/xlink">
<g id="graph0" class="graph" transform="scale(1 1) rotate(0) translate(4 169.8)">
<title>dependencies</title>
<polygon fill="white" stroke="transparent" points="-4,4 -4,-169.8 328,-169.8 328,4 -4,4"/>
<text text-anchor="middle" x="162" y="-8.2" font-family="sans-serif" font-size="14.00">dependencies</text>
<g id="clust1" class="cluster">
<title>cluster_ProfilePageModule</title>
<polygon fill="none" stroke="black" stroke-dasharray="1,5" points="8,-32.8 8,-157.8 316,-157.8 316,-32.8 8,-32.8"/>
</g>
<g id="clust4" class="cluster">
<title>cluster_ProfilePageModule_imports</title>
<polygon fill="none" stroke="black" points="122,-40.8 122,-92.8 308,-92.8 308,-40.8 122,-40.8"/>
</g>
<g id="clust2" class="cluster">
<title>cluster_ProfilePageModule_declarations</title>
<polygon fill="none" stroke="black" points="16,-40.8 16,-92.8 114,-92.8 114,-40.8 16,-40.8"/>
</g>
<!-- ProfilePage -->
<g id="node1" class="node">
<title>ProfilePage</title>
<polygon fill="#ffffb3" stroke="black" points="105.82,-84.8 24.18,-84.8 24.18,-48.8 105.82,-48.8 105.82,-84.8"/>
<text text-anchor="middle" x="65" y="-62.6" font-family="Times,serif" font-size="14.00">ProfilePage</text>
</g>
<!-- ProfilePageModule -->
<g id="node2" class="node">
<title>ProfilePageModule</title>
<polygon fill="#8dd3c7" stroke="black" points="208.37,-149.8 205.37,-153.8 184.37,-153.8 181.37,-149.8 83.63,-149.8 83.63,-113.8 208.37,-113.8 208.37,-149.8"/>
<text text-anchor="middle" x="146" y="-127.6" font-family="Times,serif" font-size="14.00">ProfilePageModule</text>
</g>
<!-- ProfilePage&#45;&gt;ProfilePageModule -->
<g id="edge1" class="edge">
<title>ProfilePage&#45;&gt;ProfilePageModule</title>
<path fill="none" stroke="black" d="M94.61,-84.91C94.61,-84.91 94.61,-103.79 94.61,-103.79"/>
<polygon fill="black" stroke="black" points="91.11,-103.79 94.61,-113.79 98.11,-103.79 91.11,-103.79"/>
</g>
<!-- ProfilePageRoutingModule -->
<g id="node3" class="node">
<title>ProfilePageRoutingModule</title>
<polygon fill="#8dd3c7" stroke="black" points="299.99,-84.8 296.99,-88.8 275.99,-88.8 272.99,-84.8 130.01,-84.8 130.01,-48.8 299.99,-48.8 299.99,-84.8"/>
<text text-anchor="middle" x="215" y="-62.6" font-family="Times,serif" font-size="14.00">ProfilePageRoutingModule</text>
</g>
<!-- ProfilePageRoutingModule&#45;&gt;ProfilePageModule -->
<g id="edge2" class="edge">
<title>ProfilePageRoutingModule&#45;&gt;ProfilePageModule</title>
<path fill="none" stroke="black" d="M169.22,-84.91C169.22,-84.91 169.22,-103.79 169.22,-103.79"/>
<polygon fill="black" stroke="black" points="165.72,-103.79 169.22,-113.79 172.72,-103.79 165.72,-103.79"/>
</g>
</g>
</svg>
