<?xml version="1.0" encoding="UTF-8" standalone="no"?>
<!DOCTYPE svg PUBLIC "-//W3C//DTD SVG 1.1//EN"
 "http://www.w3.org/Graphics/SVG/1.1/DTD/svg11.dtd">
<!-- Generated by graphviz version 5.0.0 (20220707.1540)
 -->
<!-- Title: dependencies Pages: 1 -->
<svg width="382pt" height="174pt"
 viewBox="0.00 0.00 382.00 173.80" xmlns="http://www.w3.org/2000/svg" xmlns:xlink="http://www.w3.org/1999/xlink">
<g id="graph0" class="graph" transform="scale(1 1) rotate(0) translate(4 169.8)">
<title>dependencies</title>
<polygon fill="white" stroke="transparent" points="-4,4 -4,-169.8 378,-169.8 378,4 -4,4"/>
<text text-anchor="middle" x="187" y="-8.2" font-family="sans-serif" font-size="14.00">dependencies</text>
<g id="clust1" class="cluster">
<title>cluster_CreatePagePageModule</title>
<polygon fill="none" stroke="black" stroke-dasharray="1,5" points="8,-32.8 8,-157.8 366,-157.8 366,-32.8 8,-32.8"/>
</g>
<g id="clust2" class="cluster">
<title>cluster_CreatePagePageModule_declarations</title>
<polygon fill="none" stroke="black" points="236,-40.8 236,-92.8 358,-92.8 358,-40.8 236,-40.8"/>
</g>
<g id="clust4" class="cluster">
<title>cluster_CreatePagePageModule_imports</title>
<polygon fill="none" stroke="black" points="16,-40.8 16,-92.8 228,-92.8 228,-40.8 16,-40.8"/>
</g>
<!-- CreatePagePage -->
<g id="node1" class="node">
<title>CreatePagePage</title>
<polygon fill="#ffffb3" stroke="black" points="350.46,-84.8 243.54,-84.8 243.54,-48.8 350.46,-48.8 350.46,-84.8"/>
<text text-anchor="middle" x="297" y="-62.6" font-family="Times,serif" font-size="14.00">CreatePagePage</text>
</g>
<!-- CreatePagePageModule -->
<g id="node2" class="node">
<title>CreatePagePageModule</title>
<polygon fill="#8dd3c7" stroke="black" points="277.01,-149.8 274.01,-153.8 253.01,-153.8 250.01,-149.8 126.99,-149.8 126.99,-113.8 277.01,-113.8 277.01,-149.8"/>
<text text-anchor="middle" x="202" y="-127.6" font-family="Times,serif" font-size="14.00">CreatePagePageModule</text>
</g>
<!-- CreatePagePage&#45;&gt;CreatePagePageModule -->
<g id="edge1" class="edge">
<title>CreatePagePage&#45;&gt;CreatePagePageModule</title>
<path fill="none" stroke="black" d="M260.39,-84.91C260.39,-84.91 260.39,-103.79 260.39,-103.79"/>
<polygon fill="black" stroke="black" points="256.89,-103.79 260.39,-113.79 263.89,-103.79 256.89,-103.79"/>
</g>
<!-- CreatePagePageRoutingModule -->
<g id="node3" class="node">
<title>CreatePagePageRoutingModule</title>
<polygon fill="#8dd3c7" stroke="black" points="219.63,-84.8 216.63,-88.8 195.63,-88.8 192.63,-84.8 24.37,-84.8 24.37,-48.8 219.63,-48.8 219.63,-84.8"/>
<text text-anchor="middle" x="122" y="-62.6" font-family="Times,serif" font-size="14.00">CreatePagePageRoutingModule</text>
</g>
<!-- CreatePagePageRoutingModule&#45;&gt;CreatePagePageModule -->
<g id="edge2" class="edge">
<title>CreatePagePageRoutingModule&#45;&gt;CreatePagePageModule</title>
<path fill="none" stroke="black" d="M173.28,-84.91C173.28,-84.91 173.28,-103.79 173.28,-103.79"/>
<polygon fill="black" stroke="black" points="169.78,-103.79 173.28,-113.79 176.78,-103.79 169.78,-103.79"/>
</g>
</g>
</svg>
