<?xml version="1.0" encoding="UTF-8" standalone="no"?>
<!DOCTYPE svg PUBLIC "-//W3C//DTD SVG 1.1//EN"
 "http://www.w3.org/Graphics/SVG/1.1/DTD/svg11.dtd">
<!-- Generated by graphviz version 5.0.0 (20220707.1540)
 -->
<!-- Title: dependencies Pages: 1 -->
<svg width="440pt" height="174pt"
 viewBox="0.00 0.00 440.00 173.80" xmlns="http://www.w3.org/2000/svg" xmlns:xlink="http://www.w3.org/1999/xlink">
<g id="graph0" class="graph" transform="scale(1 1) rotate(0) translate(4 169.8)">
<title>dependencies</title>
<polygon fill="white" stroke="transparent" points="-4,4 -4,-169.8 436,-169.8 436,4 -4,4"/>
<text text-anchor="middle" x="216" y="-8.2" font-family="sans-serif" font-size="14.00">dependencies</text>
<g id="clust1" class="cluster">
<title>cluster_Tab2PageModule</title>
<polygon fill="none" stroke="black" stroke-dasharray="1,5" points="8,-32.8 8,-157.8 424,-157.8 424,-32.8 8,-32.8"/>
</g>
<g id="clust5" class="cluster">
<title>cluster_Tab2PageModule_imports</title>
<polygon fill="none" stroke="black" points="240,-40.8 240,-92.8 416,-92.8 416,-40.8 240,-40.8"/>
</g>
<g id="clust2" class="cluster">
<title>cluster_Tab2PageModule_declarations</title>
<polygon fill="none" stroke="black" points="16,-40.8 16,-92.8 232,-92.8 232,-40.8 16,-40.8"/>
</g>
<!-- ReadComponent -->
<g id="node1" class="node">
<title>ReadComponent</title>
<polygon fill="#ffffb3" stroke="black" points="224.1,-84.8 113.9,-84.8 113.9,-48.8 224.1,-48.8 224.1,-84.8"/>
<text text-anchor="middle" x="169" y="-62.6" font-family="Times,serif" font-size="14.00">ReadComponent</text>
</g>
<!-- Tab2PageModule -->
<g id="node3" class="node">
<title>Tab2PageModule</title>
<polygon fill="#8dd3c7" stroke="black" points="226.53,-149.8 223.53,-153.8 202.53,-153.8 199.53,-149.8 111.47,-149.8 111.47,-113.8 226.53,-113.8 226.53,-149.8"/>
<text text-anchor="middle" x="169" y="-127.6" font-family="Times,serif" font-size="14.00">Tab2PageModule</text>
</g>
<!-- ReadComponent&#45;&gt;Tab2PageModule -->
<g id="edge1" class="edge">
<title>ReadComponent&#45;&gt;Tab2PageModule</title>
<path fill="none" stroke="black" d="M169,-84.91C169,-84.91 169,-103.79 169,-103.79"/>
<polygon fill="black" stroke="black" points="165.5,-103.79 169,-113.79 172.5,-103.79 165.5,-103.79"/>
</g>
<!-- Tab2Page -->
<g id="node2" class="node">
<title>Tab2Page</title>
<polygon fill="#ffffb3" stroke="black" points="95.98,-84.8 24.02,-84.8 24.02,-48.8 95.98,-48.8 95.98,-84.8"/>
<text text-anchor="middle" x="60" y="-62.6" font-family="Times,serif" font-size="14.00">Tab2Page</text>
</g>
<!-- Tab2Page&#45;&gt;Tab2PageModule -->
<g id="edge2" class="edge">
<title>Tab2Page&#45;&gt;Tab2PageModule</title>
<path fill="none" stroke="black" d="M60,-84.91C60,-104.14 60,-131.8 60,-131.8 60,-131.8 101.31,-131.8 101.31,-131.8"/>
<polygon fill="black" stroke="black" points="101.31,-135.3 111.31,-131.8 101.31,-128.3 101.31,-135.3"/>
</g>
<!-- Tab2PageRoutingModule -->
<g id="node4" class="node">
<title>Tab2PageRoutingModule</title>
<polygon fill="#8dd3c7" stroke="black" points="408.15,-84.8 405.15,-88.8 384.15,-88.8 381.15,-84.8 247.85,-84.8 247.85,-48.8 408.15,-48.8 408.15,-84.8"/>
<text text-anchor="middle" x="328" y="-62.6" font-family="Times,serif" font-size="14.00">Tab2PageRoutingModule</text>
</g>
<!-- Tab2PageRoutingModule&#45;&gt;Tab2PageModule -->
<g id="edge3" class="edge">
<title>Tab2PageRoutingModule&#45;&gt;Tab2PageModule</title>
<path fill="none" stroke="black" d="M328,-84.91C328,-104.14 328,-131.8 328,-131.8 328,-131.8 236.85,-131.8 236.85,-131.8"/>
<polygon fill="black" stroke="black" points="236.85,-128.3 226.85,-131.8 236.85,-135.3 236.85,-128.3"/>
</g>
</g>
</svg>
