<?xml version="1.0" encoding="UTF-8" standalone="no"?>
<!DOCTYPE svg PUBLIC "-//W3C//DTD SVG 1.1//EN"
 "http://www.w3.org/Graphics/SVG/1.1/DTD/svg11.dtd">
<!-- Generated by graphviz version 5.0.0 (20220707.1540)
 -->
<!-- Title: dependencies Pages: 1 -->
<svg width="924pt" height="247pt"
 viewBox="0.00 0.00 924.00 246.80" xmlns="http://www.w3.org/2000/svg" xmlns:xlink="http://www.w3.org/1999/xlink">
<g id="graph0" class="graph" transform="scale(1 1) rotate(0) translate(4 242.8)">
<title>dependencies</title>
<polygon fill="white" stroke="transparent" points="-4,4 -4,-242.8 920,-242.8 920,4 -4,4"/>
<text text-anchor="middle" x="458" y="-8.2" font-family="sans-serif" font-size="14.00">dependencies</text>
<g id="clust1" class="cluster">
<title>cluster_AppModule</title>
<polygon fill="none" stroke="black" stroke-dasharray="1,5" points="8,-32.8 8,-230.8 908,-230.8 908,-32.8 8,-32.8"/>
</g>
<g id="clust7" class="cluster">
<title>cluster_AppModule_bootstrap</title>
<polygon fill="none" stroke="black" points="416,-170.8 416,-222.8 540,-222.8 540,-170.8 416,-170.8"/>
</g>
<g id="clust2" class="cluster">
<title>cluster_AppModule_declarations</title>
<polygon fill="none" stroke="black" points="619,-40.8 619,-92.8 900,-92.8 900,-40.8 619,-40.8"/>
</g>
<g id="clust8" class="cluster">
<title>cluster_AppModule_providers</title>
<polygon fill="none" stroke="black" points="487,-40.8 487,-92.8 611,-92.8 611,-40.8 487,-40.8"/>
</g>
<g id="clust5" class="cluster">
<title>cluster_AppModule_imports</title>
<polygon fill="none" stroke="black" points="16,-40.8 16,-92.8 479,-92.8 479,-40.8 16,-40.8"/>
</g>
<!-- AppComponent -->
<g id="node1" class="node">
<title>AppComponent</title>
<polygon fill="#ffffb3" stroke="black" points="891.94,-84.8 786.06,-84.8 786.06,-48.8 891.94,-48.8 891.94,-84.8"/>
<text text-anchor="middle" x="839" y="-62.6" font-family="Times,serif" font-size="14.00">AppComponent</text>
</g>
<!-- AppModule -->
<g id="node3" class="node">
<title>AppModule</title>
<polygon fill="#8dd3c7" stroke="black" points="519.66,-149.8 516.66,-153.8 495.66,-153.8 492.66,-149.8 436.34,-149.8 436.34,-113.8 519.66,-113.8 519.66,-149.8"/>
<text text-anchor="middle" x="478" y="-127.6" font-family="Times,serif" font-size="14.00">AppModule</text>
</g>
<!-- AppComponent&#45;&gt;AppModule -->
<g id="edge1" class="edge">
<title>AppComponent&#45;&gt;AppModule</title>
<path fill="none" stroke="black" d="M839,-85.08C839,-106.12 839,-137.8 839,-137.8 839,-137.8 529.76,-137.8 529.76,-137.8"/>
<polygon fill="black" stroke="black" points="529.76,-134.3 519.76,-137.8 529.76,-141.3 529.76,-134.3"/>
</g>
<!-- CreatepostComponent -->
<g id="node2" class="node">
<title>CreatepostComponent</title>
<polygon fill="#ffffb3" stroke="black" points="768.7,-84.8 627.3,-84.8 627.3,-48.8 768.7,-48.8 768.7,-84.8"/>
<text text-anchor="middle" x="698" y="-62.6" font-family="Times,serif" font-size="14.00">CreatepostComponent</text>
</g>
<!-- CreatepostComponent&#45;&gt;AppModule -->
<g id="edge2" class="edge">
<title>CreatepostComponent&#45;&gt;AppModule</title>
<path fill="none" stroke="black" d="M698,-84.82C698,-102.17 698,-125.8 698,-125.8 698,-125.8 529.9,-125.8 529.9,-125.8"/>
<polygon fill="black" stroke="black" points="529.9,-122.3 519.9,-125.8 529.9,-129.3 529.9,-122.3"/>
</g>
<!-- AppComponent  -->
<g id="node7" class="node">
<title>AppComponent </title>
<polygon fill="#80b1d3" stroke="black" points="532.44,-214.8 423.56,-214.8 423.56,-178.8 532.44,-178.8 532.44,-214.8"/>
<text text-anchor="middle" x="478" y="-192.6" font-family="Times,serif" font-size="14.00">AppComponent </text>
</g>
<!-- AppModule&#45;&gt;AppComponent  -->
<g id="edge6" class="edge">
<title>AppModule&#45;&gt;AppComponent </title>
<path fill="none" stroke="black" stroke-dasharray="1,5" d="M478,-149.91C478,-149.91 478,-168.79 478,-168.79"/>
<polygon fill="black" stroke="black" points="474.5,-168.79 478,-178.79 481.5,-168.79 474.5,-168.79"/>
</g>
<!-- AppRoutingModule -->
<g id="node4" class="node">
<title>AppRoutingModule</title>
<polygon fill="#8dd3c7" stroke="black" points="471.28,-84.8 468.28,-88.8 447.28,-88.8 444.28,-84.8 342.72,-84.8 342.72,-48.8 471.28,-48.8 471.28,-84.8"/>
<text text-anchor="middle" x="407" y="-62.6" font-family="Times,serif" font-size="14.00">AppRoutingModule</text>
</g>
<!-- AppRoutingModule&#45;&gt;AppModule -->
<g id="edge3" class="edge">
<title>AppRoutingModule&#45;&gt;AppModule</title>
<path fill="none" stroke="black" d="M453.78,-84.91C453.78,-84.91 453.78,-103.79 453.78,-103.79"/>
<polygon fill="black" stroke="black" points="450.28,-103.79 453.78,-113.79 457.28,-103.79 450.28,-103.79"/>
</g>
<!-- TabsLoggedInPageModule -->
<g id="node5" class="node">
<title>TabsLoggedInPageModule</title>
<polygon fill="#8dd3c7" stroke="black" points="324.41,-84.8 321.41,-88.8 300.41,-88.8 297.41,-84.8 155.59,-84.8 155.59,-48.8 324.41,-48.8 324.41,-84.8"/>
<text text-anchor="middle" x="240" y="-62.6" font-family="Times,serif" font-size="14.00">TabsLoggedInPageModule</text>
</g>
<!-- TabsLoggedInPageModule&#45;&gt;AppModule -->
<g id="edge4" class="edge">
<title>TabsLoggedInPageModule&#45;&gt;AppModule</title>
<path fill="none" stroke="black" d="M240,-84.82C240,-102.17 240,-125.8 240,-125.8 240,-125.8 426.27,-125.8 426.27,-125.8"/>
<polygon fill="black" stroke="black" points="426.27,-129.3 436.27,-125.8 426.27,-122.3 426.27,-129.3"/>
</g>
<!-- TabsPageModule -->
<g id="node6" class="node">
<title>TabsPageModule</title>
<polygon fill="#8dd3c7" stroke="black" points="137.98,-84.8 134.98,-88.8 113.98,-88.8 110.98,-84.8 24.02,-84.8 24.02,-48.8 137.98,-48.8 137.98,-84.8"/>
<text text-anchor="middle" x="81" y="-62.6" font-family="Times,serif" font-size="14.00">TabsPageModule</text>
</g>
<!-- TabsPageModule&#45;&gt;AppModule -->
<g id="edge5" class="edge">
<title>TabsPageModule&#45;&gt;AppModule</title>
<path fill="none" stroke="black" d="M81,-85.08C81,-106.12 81,-137.8 81,-137.8 81,-137.8 426.26,-137.8 426.26,-137.8"/>
<polygon fill="black" stroke="black" points="426.26,-141.3 436.26,-137.8 426.26,-134.3 426.26,-141.3"/>
</g>
<!-- ApiService -->
<g id="node8" class="node">
<title>ApiService</title>
<ellipse fill="#fdb462" stroke="black" cx="549" cy="-66.8" rx="54.46" ry="18"/>
<text text-anchor="middle" x="549" y="-62.6" font-family="Times,serif" font-size="14.00">ApiService</text>
</g>
<!-- ApiService&#45;&gt;AppModule -->
<g id="edge7" class="edge">
<title>ApiService&#45;&gt;AppModule</title>
<path fill="none" stroke="black" d="M507.18,-78.42C507.18,-78.42 507.18,-103.65 507.18,-103.65"/>
<polygon fill="black" stroke="black" points="503.68,-103.65 507.18,-113.65 510.68,-103.65 503.68,-103.65"/>
</g>
</g>
</svg>
