<?xml version="1.0" encoding="UTF-8" standalone="no"?>
<!DOCTYPE svg PUBLIC "-//W3C//DTD SVG 1.1//EN"
 "http://www.w3.org/Graphics/SVG/1.1/DTD/svg11.dtd">
<!-- Generated by graphviz version 5.0.0 (20220707.1540)
 -->
<!-- Title: dependencies Pages: 1 -->
<svg width="418pt" height="174pt"
 viewBox="0.00 0.00 418.00 173.80" xmlns="http://www.w3.org/2000/svg" xmlns:xlink="http://www.w3.org/1999/xlink">
<g id="graph0" class="graph" transform="scale(1 1) rotate(0) translate(4 169.8)">
<title>dependencies</title>
<polygon fill="white" stroke="transparent" points="-4,4 -4,-169.8 414,-169.8 414,4 -4,4"/>
<text text-anchor="middle" x="205" y="-8.2" font-family="sans-serif" font-size="14.00">dependencies</text>
<g id="clust1" class="cluster">
<title>cluster_TabsLoggedInPageModule</title>
<polygon fill="none" stroke="black" stroke-dasharray="1,5" points="8,-32.8 8,-157.8 402,-157.8 402,-32.8 8,-32.8"/>
</g>
<g id="clust2" class="cluster">
<title>cluster_TabsLoggedInPageModule_declarations</title>
<polygon fill="none" stroke="black" points="254,-40.8 254,-92.8 394,-92.8 394,-40.8 254,-40.8"/>
</g>
<g id="clust4" class="cluster">
<title>cluster_TabsLoggedInPageModule_imports</title>
<polygon fill="none" stroke="black" points="16,-40.8 16,-92.8 246,-92.8 246,-40.8 16,-40.8"/>
</g>
<!-- TabsLoggedInPage -->
<g id="node1" class="node">
<title>TabsLoggedInPage</title>
<polygon fill="#ffffb3" stroke="black" points="386.36,-84.8 261.64,-84.8 261.64,-48.8 386.36,-48.8 386.36,-84.8"/>
<text text-anchor="middle" x="324" y="-62.6" font-family="Times,serif" font-size="14.00">TabsLoggedInPage</text>
</g>
<!-- TabsLoggedInPageModule -->
<g id="node2" class="node">
<title>TabsLoggedInPageModule</title>
<polygon fill="#8dd3c7" stroke="black" points="304.41,-149.8 301.41,-153.8 280.41,-153.8 277.41,-149.8 135.59,-149.8 135.59,-113.8 304.41,-113.8 304.41,-149.8"/>
<text text-anchor="middle" x="220" y="-127.6" font-family="Times,serif" font-size="14.00">TabsLoggedInPageModule</text>
</g>
<!-- TabsLoggedInPage&#45;&gt;TabsLoggedInPageModule -->
<g id="edge1" class="edge">
<title>TabsLoggedInPage&#45;&gt;TabsLoggedInPageModule</title>
<path fill="none" stroke="black" d="M282.89,-84.91C282.89,-84.91 282.89,-103.79 282.89,-103.79"/>
<polygon fill="black" stroke="black" points="279.39,-103.79 282.89,-113.79 286.39,-103.79 279.39,-103.79"/>
</g>
<!-- TabsLoggedInPageRoutingModule -->
<g id="node3" class="node">
<title>TabsLoggedInPageRoutingModule</title>
<polygon fill="#8dd3c7" stroke="black" points="237.52,-84.8 234.52,-88.8 213.52,-88.8 210.52,-84.8 24.48,-84.8 24.48,-48.8 237.52,-48.8 237.52,-84.8"/>
<text text-anchor="middle" x="131" y="-62.6" font-family="Times,serif" font-size="14.00">TabsLoggedInPageRoutingModule</text>
</g>
<!-- TabsLoggedInPageRoutingModule&#45;&gt;TabsLoggedInPageModule -->
<g id="edge2" class="edge">
<title>TabsLoggedInPageRoutingModule&#45;&gt;TabsLoggedInPageModule</title>
<path fill="none" stroke="black" d="M186.78,-84.91C186.78,-84.91 186.78,-103.79 186.78,-103.79"/>
<polygon fill="black" stroke="black" points="183.28,-103.79 186.78,-113.79 190.28,-103.79 183.28,-103.79"/>
</g>
</g>
</svg>
