<?xml version="1.0" encoding="UTF-8" standalone="no"?>
<!DOCTYPE svg PUBLIC "-//W3C//DTD SVG 1.1//EN"
 "http://www.w3.org/Graphics/SVG/1.1/DTD/svg11.dtd">
<!-- Generated by graphviz version 5.0.0 (20220707.1540)
 -->
<!-- Title: dependencies Pages: 1 -->
<svg width="404pt" height="174pt"
 viewBox="0.00 0.00 404.00 173.80" xmlns="http://www.w3.org/2000/svg" xmlns:xlink="http://www.w3.org/1999/xlink">
<g id="graph0" class="graph" transform="scale(1 1) rotate(0) translate(4 169.8)">
<title>dependencies</title>
<polygon fill="white" stroke="transparent" points="-4,4 -4,-169.8 400,-169.8 400,4 -4,4"/>
<text text-anchor="middle" x="198" y="-8.2" font-family="sans-serif" font-size="14.00">dependencies</text>
<g id="clust1" class="cluster">
<title>cluster_FavoritePagePageModule</title>
<polygon fill="none" stroke="black" stroke-dasharray="1,5" points="8,-32.8 8,-157.8 388,-157.8 388,-32.8 8,-32.8"/>
</g>
<g id="clust2" class="cluster">
<title>cluster_FavoritePagePageModule_declarations</title>
<polygon fill="none" stroke="black" points="246,-40.8 246,-92.8 380,-92.8 380,-40.8 246,-40.8"/>
</g>
<g id="clust4" class="cluster">
<title>cluster_FavoritePagePageModule_imports</title>
<polygon fill="none" stroke="black" points="16,-40.8 16,-92.8 238,-92.8 238,-40.8 16,-40.8"/>
</g>
<!-- FavoritePagePage -->
<g id="node1" class="node">
<title>FavoritePagePage</title>
<polygon fill="#ffffb3" stroke="black" points="371.58,-84.8 254.42,-84.8 254.42,-48.8 371.58,-48.8 371.58,-84.8"/>
<text text-anchor="middle" x="313" y="-62.6" font-family="Times,serif" font-size="14.00">FavoritePagePage</text>
</g>
<!-- FavoritePagePageModule -->
<g id="node2" class="node">
<title>FavoritePagePageModule</title>
<polygon fill="#8dd3c7" stroke="black" points="293.14,-149.8 290.14,-153.8 269.14,-153.8 266.14,-149.8 132.86,-149.8 132.86,-113.8 293.14,-113.8 293.14,-149.8"/>
<text text-anchor="middle" x="213" y="-127.6" font-family="Times,serif" font-size="14.00">FavoritePagePageModule</text>
</g>
<!-- FavoritePagePage&#45;&gt;FavoritePagePageModule -->
<g id="edge1" class="edge">
<title>FavoritePagePage&#45;&gt;FavoritePagePageModule</title>
<path fill="none" stroke="black" d="M273.89,-84.91C273.89,-84.91 273.89,-103.79 273.89,-103.79"/>
<polygon fill="black" stroke="black" points="270.39,-103.79 273.89,-113.79 277.39,-103.79 270.39,-103.79"/>
</g>
<!-- FavoritePagePageRoutingModule -->
<g id="node3" class="node">
<title>FavoritePagePageRoutingModule</title>
<polygon fill="#8dd3c7" stroke="black" points="229.75,-84.8 226.75,-88.8 205.75,-88.8 202.75,-84.8 24.25,-84.8 24.25,-48.8 229.75,-48.8 229.75,-84.8"/>
<text text-anchor="middle" x="127" y="-62.6" font-family="Times,serif" font-size="14.00">FavoritePagePageRoutingModule</text>
</g>
<!-- FavoritePagePageRoutingModule&#45;&gt;FavoritePagePageModule -->
<g id="edge2" class="edge">
<title>FavoritePagePageRoutingModule&#45;&gt;FavoritePagePageModule</title>
<path fill="none" stroke="black" d="M181.28,-84.91C181.28,-84.91 181.28,-103.79 181.28,-103.79"/>
<polygon fill="black" stroke="black" points="177.78,-103.79 181.28,-113.79 184.78,-103.79 177.78,-103.79"/>
</g>
</g>
</svg>
